<?xml version="1.0" encoding="UTF-8" standalone="no" ?>
<!DOCTYPE svg PUBLIC "-//W3C//DTD SVG 1.1//EN" "http://www.w3.org/Graphics/SVG/1.1/DTD/svg11.dtd">
<svg xmlns="http://www.w3.org/2000/svg" xmlns:xlink="http://www.w3.org/1999/xlink" version="1.1" width="56" height="56" viewBox="0 0 56 56" xml:space="preserve">
<desc>Created with Fabric.js 4.6.0</desc>
<defs>
</defs>
<g transform="matrix(1 0 0 1 270.4 148.28)" id="qt4hZQub1YA0YB5HxsOrM"  >
<path style="stroke: rgb(185,1,178); stroke-width: 0; stroke-dasharray: none; stroke-linecap: butt; stroke-dashoffset: 0; stroke-linejoin: miter; stroke-miterlimit: 4; fill: rgb(146,146,146); fill-rule: nonzero; opacity: 1;" vector-effect="non-scaling-stroke"  transform=" translate(-27.5, -27.5)" d="M 27.5 0 C 42.68 0 55 12.32 55 27.5 C 55 42.68 42.68 55 27.5 55 C 12.32 55 0 42.68 0 27.5 C 0 12.32 12.32 0 27.5 0 z" stroke-linecap="round" />
</g>
<g transform="matrix(1 0 0 1 280.4 158.28)" id="oiuSCtwcfrbSvR-V9XBrw"  >
<path style="stroke: rgb(185,1,178); stroke-width: 0; stroke-dasharray: none; stroke-linecap: butt; stroke-dashoffset: 0; stroke-linejoin: miter; stroke-miterlimit: 4; fill: rgb(146,146,146); fill-rule: nonzero; opacity: 1;" vector-effect="non-scaling-stroke"  transform=" translate(-27.5, -27.5)" d="M 27.5 0 C 42.68 0 55 12.32 55 27.5 C 55 42.68 42.68 55 27.5 55 C 12.32 55 0 42.68 0 27.5 C 0 12.32 12.32 0 27.5 0 z" stroke-linecap="round" />
</g>
<g transform="matrix(1 0 0 1 260.4 138.28)" id="T7jV9IQp1HfXBBK1ektEV"  >
<path style="stroke: rgb(185,1,178); stroke-width: 0; stroke-dasharray: none; stroke-linecap: butt; stroke-dashoffset: 0; stroke-linejoin: miter; stroke-miterlimit: 4; fill: rgb(146,146,146); fill-rule: nonzero; opacity: 1;" vector-effect="non-scaling-stroke"  transform=" translate(-27.5, -27.5)" d="M 27.5 0 C 42.68 0 55 12.32 55 27.5 C 55 42.68 42.68 55 27.5 55 C 12.32 55 0 42.68 0 27.5 C 0 12.32 12.32 0 27.5 0 z" stroke-linecap="round" />
</g>
<g transform="matrix(1 0 0 1 27.87 27.87)" id="PcX5ikkUV8uGuACORDCOJ"  >
<path style="stroke: rgb(38,132,113); stroke-width: 0; stroke-dasharray: none; stroke-linecap: butt; stroke-dashoffset: 0; stroke-linejoin: miter; stroke-miterlimit: 4; fill: rgb(146,146,146); fill-rule: nonzero; opacity: 1;" vector-effect="non-scaling-stroke"  transform=" translate(-27.5, -27.5)" d="M 27.5 0 C 42.68 0 55 12.32 55 27.5 C 55 42.68 42.68 55 27.5 55 C 12.32 55 0 42.68 0 27.5 C 0 12.32 12.32 0 27.5 0 z" stroke-linecap="round" />
</g>
</svg>